# xmcd
#
# Track frame offsets:
#	150
#	7902
#	41155
#	53200
#	70040
#	82290
#	102085
#	121800
#	134810
#	156745
#	170120
#	195855
#	205240
#	223780
#	239980
#	268645
#	291960
#	308662
#
# Disc length: 4269 seconds
#
# Revision: 1
# Processed by: cddbd v1.5.1PL0 Copyright (c) Steve Scherf et al.
# Submitted via: audiograbber 1.83.01
#
DISCID=1910ab12
DTITLE=Six String Boogie - The Power of Blues Guitar
DYEAR=1900
DGENRE=Blues
TTITLE0=U.P. Wilson - Enter the Tornado
TTITLE1=U.P. Wilson - Hold on baby
TTITLE2=Ike Turner - Prancin'
TTITLE3=Lacy Gibson and Sunnyland Slim - Bessie Mae
TTITLE4=John Lee Hooker - House rent boogie
TTITLE5=Buster Benton - Leave me alone
TTITLE6=Fenton Robinson - Somebody loan me a dime
TTITLE7=Mark Pollock - Texas love
TTITLE8=The mighty Houserockers - Blue light
TTITLE9=Mississippi Fred McDowell - Shake 'em on down
TTITLE10=Luther Allison - You're gonna need me
TTITLE11=Matt 'Guitar' Murphy and Memphis Slim - All by myself
TTITLE12=Byther Smith - Walked all night long
TTITLE13=Mike Morgan - Well all right then
TTITLE14=Buddy Buy - The first time I met the blues
TTITLE15=Todd Sharpville - Little bit worried
TTITLE16=Earl Hooker - Dust my broom
TTITLE17=Peter Green and Mick Green - Way you dance
EXTD=
EXTT0=
EXTT1=
EXTT2=
EXTT3=
EXTT4=
EXTT5=
EXTT6=
EXTT7=
EXTT8=
EXTT9=
EXTT10=
EXTT11=
EXTT12=
EXTT13=
EXTT14=
EXTT15=
EXTT16=
EXTT17=
PLAYORDER=
